<?xml version="1.0" encoding="iso-8859-1"?><!-- Generator: Adobe Illustrator 22.1.0, SVG Export Plug-In . SVG Version: 6.00 Build 0)  --><svg xmlns="http://www.w3.org/2000/svg" xmlns:xlink="http://www.w3.org/1999/xlink" viewBox="0 0 50 50" width="200px" height="200px"><g id="original-icon" style="opacity:0;"><g id="surface1_1_"><path style="display:none;" d="M18.625,22c-0.34,0.004-0.684,0.02-1.031,0.062c-0.691,0.09-1.449,0.324-2.031,0.906L-7.156,45.688c-1.121,1.121-1.121,2.973,0,4.094l17.375,17.375c1.121,1.121,2.973,1.121,4.094,0l22.719-22.719c0.578-0.578,0.816-1.344,0.906-2.031C38.027,41.719,38,41.039,38,40.375V25.5c0-1.922-1.578-3.5-3.5-3.5H19.625C19.301,22,18.965,21.996,18.625,22z M18.656,24c0.293-0.008,0.629,0,0.969,0H34.5c0.84,0,1.5,0.66,1.5,1.5v14.875c0,0.695-0.004,1.324-0.062,1.781c-0.059,0.457-0.152,0.684-0.312,0.844L12.906,65.75c-0.355,0.355-0.926,0.355-1.281,0L11.5,65.594L-5.75,48.375c-0.355-0.355-0.355-0.926,0-1.281L17,24.375c0.156-0.156,0.414-0.254,0.875-0.312C18.105,24.031,18.363,24.008,18.656,24z M29,27c-2.199,0-4,1.801-4,4s1.801,4,4,4s4-1.801,4-4S31.199,27,29,27z M29,29c1.117,0,2,0.883,2,2c0,1.117-0.883,2-2,2c-1.117,0-2-0.883-2-2C27,29.883,27.883,29,29,29z"/></g></g><path d="M28.637,26.923l-7.514-8.511c-0.401-0.453-0.345-1.146,0.131-1.538l0.849-0.711c0.476-0.391,1.176-0.338,1.587,0.124l4.052,4.645l2.4,2.659L28.637,26.923z"/><polygon points="20.304,23.817 15.915,34.244 12.818,33.012 17.195,22.574 "/><polygon points="14.255,26.685 12.773,30.219 9.676,30.699 9.16,27.471 "/><polygon points="25.376,24.984 27.934,27.896 19.238,29.227 20.73,25.693 "/><polygon points="39.727,26.04 38.122,26.289 39.13,22.822 39.195,22.814 "/><path d="M12.582,34.092l2.895,1.156c-0.034,0.066-0.067,0.131-0.123,0.186l-3.467,4.035l0.483-5.246l0.034-0.196L12.582,34.092z"/><path d="M21.347,21.341l-0.617,1.473l-3.109-1.243l0.606-1.461c0.235-0.556,0.887-0.829,1.459-0.6l1.043,0.414C21.302,20.152,21.572,20.785,21.347,21.341z"/><path d="M39.571,32.396c0,1.884-0.551,2.693-0.551,2.693s-0.411-1.333-2.557-2.035c-0.103-0.036-0.196-0.071-0.289-0.107l1.195-4.106C38.115,29.206,39.571,30.192,39.571,32.396z"/><polyline style="fill:none;stroke:#000000;stroke-width:2;stroke-miterlimit:10;" points="41.527,11.686 46,39.896 31.141,42.265 "/><polyline style="fill:none;stroke:#000000;stroke-width:2;stroke-miterlimit:10;" points="24.223,43.368 7.711,46 3,14.876 35.691,9.834 "/><path style="fill:none;stroke:#000000;stroke-width:2;stroke-linejoin:round;stroke-miterlimit:10;" d="M48,8.064l-1.595,4.928l-2.063-0.658c0.085-0.388-0.027-0.552-0.528-0.923c-0.246-0.185-0.594-0.256-0.951-0.253c-3.178,0.031-4.894,8.148-6.861,14.825c-1.908,6.477-5.815,19.457-5.815,19.457c-0.521,1.377-1.749,1.88-3.175,1.442L25.812,46.5c-1.426-0.447-2.174-2.007-1.63-3.389c0,0,5.517-13.21,7.363-17.61C33.676,20.419,35.603,15.282,36,12c0.266-2.198-1.194-3.704-2.188-4.442C32.19,6.354,30.347,5.5,26,5.5c0,0,3.419-1.5,8.585-1.5C38,4,41.021,5.282,42.829,6.428c0,0,0.892,1.653,2.055,1.653c0.637,0,0.892-0.295,1.053-0.666L48,8.064z"/><linearGradient id="SVGID_1_" gradientUnits="userSpaceOnUse" x1="31.5283" y1="-270.5305" x2="31.5283" y2="-270.5642" gradientTransform="matrix(1 0 0 -1 0 -246)"><stop  offset="0" style="stop-color:#6DC7FF"/><stop  offset="1" style="stop-color:#E6ABFF"/></linearGradient><path style="fill:url(#SVGID_1_);" d="M31.52,24.53h-0.008l0.034,0.034L31.52,24.53z"/></svg>