<?xml version="1.0"?><svg xmlns="http://www.w3.org/2000/svg"  viewBox="0 0 100 100" width="200px" height="200px">    <path d="M 50.767578 20.921875 C 49.940578 20.921875 49.267578 21.594875 49.267578 22.421875 C 49.267578 22.493692 49.279252 22.561705 49.289062 22.630859 L 40.542969 29.910156 C 40.538924 29.913549 40.537114 29.918383 40.533203 29.921875 L 23.6875 29.921875 C 21.8025 29.921875 20.267578 31.454844 20.267578 33.339844 L 20.267578 76.501953 C 20.267578 78.386953 21.8025 79.921875 23.6875 79.921875 L 77.849609 79.921875 C 79.734609 79.921875 81.267578 78.386953 81.267578 76.501953 L 81.267578 33.339844 C 81.267578 31.454844 79.734609 29.921875 77.849609 29.921875 L 61.199219 29.921875 C 61.195953 29.919003 61.194765 29.914913 61.191406 29.912109 L 52.261719 22.480469 C 52.26251 22.460516 52.267578 22.442018 52.267578 22.421875 C 52.267578 21.594875 51.594578 20.921875 50.767578 20.921875 z M 50.767578 21.921875 C 51.042578 21.921875 51.267578 22.146875 51.267578 22.421875 C 51.267578 22.696875 51.042578 22.921875 50.767578 22.921875 C 50.492578 22.921875 50.267578 22.696875 50.267578 22.421875 C 50.267578 22.146875 50.492578 21.921875 50.767578 21.921875 z M 51.857422 23.445312 L 59.638672 29.921875 L 42.09375 29.921875 L 49.771484 23.533203 C 50.03704 23.77108 50.383909 23.921875 50.767578 23.921875 C 51.197557 23.921875 51.583647 23.736223 51.857422 23.445312 z M 23.6875 31.921875 L 77.849609 31.921875 C 78.631609 31.921875 79.267578 32.557844 79.267578 33.339844 L 79.267578 76.501953 C 79.267578 77.283953 78.631609 77.921875 77.849609 77.921875 L 23.6875 77.921875 C 22.9055 77.921875 22.267578 77.283953 22.267578 76.501953 L 22.267578 33.339844 C 22.267578 32.557844 22.9055 31.921875 23.6875 31.921875 z M 26.767578 35.921875 C 26.491578 35.921875 26.267578 36.145875 26.267578 36.421875 L 26.267578 73.421875 C 26.267578 73.697875 26.491578 73.921875 26.767578 73.921875 L 74.767578 73.921875 C 75.043578 73.921875 75.267578 73.698875 75.267578 73.421875 L 75.267578 72.322266 C 75.389152 72.15431 75.400751 71.923453 75.275391 71.744141 L 75.267578 71.732422 L 75.267578 53.5625 C 75.389261 53.3925 75.401138 53.161696 75.271484 52.982422 L 75.267578 52.976562 L 75.267578 36.421875 C 75.267578 36.145875 75.043578 35.921875 74.767578 35.921875 L 26.767578 35.921875 z M 27.267578 36.921875 L 74.267578 36.921875 L 74.267578 51.601562 L 70.011719 45.746094 C 69.738719 45.370094 69.311797 45.140188 68.841797 45.117188 C 68.357797 45.104187 67.921328 45.282812 67.611328 45.632812 L 61.644531 52.357422 L 57.0625 45.837891 C 56.7935 45.452891 56.349047 45.222656 55.873047 45.222656 C 55.870047 45.222656 55.867281 45.223609 55.863281 45.224609 C 55.383281 45.227609 54.937922 45.463422 54.669922 45.857422 L 43.892578 61.75 L 37.501953 53.158203 C 37.185953 52.733203 36.698062 52.475219 36.164062 52.449219 C 35.616063 52.430219 35.114812 52.633344 34.757812 53.027344 L 27.267578 61.279297 L 27.267578 36.921875 z M 40.767578 39.921875 C 38.286578 39.921875 36.267578 41.940875 36.267578 44.421875 C 36.267578 46.902875 38.286578 48.921875 40.767578 48.921875 C 43.248578 48.921875 45.267578 46.902875 45.267578 44.421875 C 45.267578 41.940875 43.248578 39.921875 40.767578 39.921875 z M 40.767578 40.921875 C 42.696578 40.921875 44.267578 42.491875 44.267578 44.421875 C 44.267578 46.351875 42.697578 47.921875 40.767578 47.921875 C 38.837578 47.921875 37.267578 46.351875 37.267578 44.421875 C 37.267578 42.491875 38.837578 40.921875 40.767578 40.921875 z M 68.792969 46.117188 C 68.958969 46.125188 69.108125 46.204937 69.203125 46.335938 L 74.267578 53.300781 L 74.267578 70.310547 L 62.236328 53.197266 L 68.359375 46.296875 C 68.467375 46.175875 68.626969 46.103187 68.792969 46.117188 z M 55.871094 46.222656 L 55.873047 46.222656 C 56.025047 46.222656 56.160141 46.291156 56.244141 46.410156 L 61.013672 53.195312 C 60.9872 53.35867 61.035272 53.531865 61.167969 53.650391 C 61.238892 53.712706 61.322917 53.741954 61.410156 53.757812 L 74.267578 72.048828 L 74.267578 72.921875 L 37.525391 72.921875 L 55.496094 46.417969 C 55.580094 46.294969 55.716094 46.224656 55.871094 46.222656 z M 36.115234 53.447266 C 36.349234 53.459266 36.562219 53.570859 36.699219 53.755859 L 43.296875 62.628906 L 36.316406 72.921875 L 27.267578 72.921875 L 27.267578 62.765625 L 35.496094 53.699219 C 35.651094 53.528219 35.883234 53.429266 36.115234 53.447266 z"/></svg>